<svg width="30" height="17" viewBox="0 0 30 17" fill="none" xmlns="http://www.w3.org/2000/svg">
<path fill-rule="evenodd" clip-rule="evenodd" d="M0.127686 4.80002C0.127686 3.77451 0.535065 2.79101 1.26021 2.06587C1.98535 1.34073 2.96885 0.93335 3.99435 0.93335H23.3277C24.3532 0.93335 25.3367 1.34073 26.0618 2.06587C26.787 2.79101 27.1944 3.77451 27.1944 4.80002V4.84899C28.2976 5.07197 29.1277 6.04766 29.1277 7.21668V10.1167C29.1277 11.2857 28.2976 12.2614 27.1944 12.4857V12.5333C27.1944 13.5589 26.787 14.5424 26.0618 15.2675C25.3367 15.9926 24.3532 16.4 23.3277 16.4H3.99435C2.96885 16.4 1.98535 15.9926 1.26021 15.2675C0.535065 14.5424 0.127686 13.5589 0.127686 12.5333V4.80002ZM25.261 4.80002C25.261 4.28726 25.0573 3.79551 24.6948 3.43294C24.3322 3.07037 23.8404 2.86668 23.3277 2.86668H3.99435C3.4816 2.86668 2.98985 3.07037 2.62728 3.43294C2.26471 3.79551 2.06102 4.28726 2.06102 4.80002V12.5333C2.06102 13.0461 2.26471 13.5379 2.62728 13.9004C2.98985 14.263 3.4816 14.4667 3.99435 14.4667H23.3277C23.8404 14.4667 24.3322 14.263 24.6948 13.9004C25.0573 13.5379 25.261 13.0461 25.261 12.5333V4.80002Z" fill="#DF6280"/>
</svg>
