<svg width="32" height="32" viewBox="0 0 32 32" fill="none" xmlns="http://www.w3.org/2000/svg">
<path d="M0 8C0 3.58172 3.58172 0 8 0H24C28.4183 0 32 3.58172 32 8V24C32 28.4183 28.4183 32 24 32H8C3.58172 32 0 28.4183 0 24V8Z" fill="white"/>
<path d="M21 16.0971C21 16.3303 20.9172 16.5357 20.7423 16.7129L13.4448 23.945C13.2883 24.1131 13.0859 24.1971 12.8466 24.1971C12.3681 24.1971 12 23.8331 12 23.3478C12 23.1052 12.1012 22.8999 12.2485 22.7413L18.9478 16.0971L12.2485 9.45282C12.1012 9.29419 12 9.07956 12 8.84626C12 8.36101 12.3681 7.99707 12.8466 7.99707C13.0859 7.99707 13.2883 8.08106 13.4448 8.2397L20.7423 15.4812C20.9172 15.6491 21 15.8638 21 16.0971Z" fill="#494949"/>
</svg>
