<svg width="32" height="32" viewBox="0 0 32 32" fill="none" xmlns="http://www.w3.org/2000/svg">
<path d="M0 8C0 3.58172 3.58172 0 8 0H24C28.4183 0 32 3.58172 32 8V24C32 28.4183 28.4183 32 24 32H8C3.58172 32 0 28.4183 0 24V8Z" fill="white"/>
<path d="M11 16.0004C11 16.2336 11.0828 16.439 11.2577 16.6163L18.5552 23.8484C18.7117 24.0164 18.9141 24.1004 19.1534 24.1004C19.6319 24.1004 20 23.7364 20 23.2511C20 23.0086 19.8988 22.8032 19.7515 22.6446L13.0522 16.0004L19.7515 9.35614C19.8988 9.19751 20 8.98288 20 8.74959C20 8.26433 19.6319 7.90039 19.1534 7.90039C18.9141 7.90039 18.7117 7.98438 18.5552 8.14302L11.2577 15.3845C11.0828 15.5525 11 15.7671 11 16.0004Z" fill="#494949"/>
</svg>
