<svg width="40" height="57" viewBox="0 0 40 57" fill="none" xmlns="http://www.w3.org/2000/svg">
<path d="M20 0.5C30.7768 0.5 39.5 9.10101 39.5 19.6943C39.4999 23.0921 38.6035 26.2827 37.0303 29.0508L36.7061 29.5986C36.687 29.6297 36.6727 29.662 36.6611 29.6943L21.2812 54.9365C20.6967 55.8958 19.3033 55.8959 18.7188 54.9365L3.33789 29.6943C3.3263 29.6621 3.31292 29.6296 3.29395 29.5986C1.52075 26.7072 0.500057 23.3185 0.5 19.6943C0.5 9.10101 9.22315 0.5 20 0.5Z" fill="#DFF0FF" stroke="#175CD3"/>
<rect x="4" y="4" width="32" height="32" rx="16" fill="#175CD3"/>
<path d="M11.2299 21.3527L12.3353 20.5978L12.0284 20.3525C11.7565 20.1353 11.7658 19.7173 12.0488 19.513L22.1888 12.1901C22.6443 11.8612 23.2767 11.9467 23.6285 12.3846L26.961 16.5326C27.34 17.0044 27.2444 17.6996 26.7518 18.0514L24.2184 19.8606L25.2355 21.3056C25.4038 21.5447 25.3452 21.8754 25.1051 22.0422L24.7425 22.294C25.3341 22.8648 26.1274 23.1878 26.956 23.1878H27.9453V22.0452C27.9453 21.7539 28.1814 21.5178 28.4727 21.5178C28.7639 21.5178 29 21.7539 29 22.0452V27.4241C29 27.7153 28.7639 27.9514 28.4727 27.9514C28.1814 27.9514 27.9453 27.7153 27.9453 27.4241V26.3518H27.2305C25.3376 26.3518 23.487 25.5557 22.1725 24.079L21.6451 24.4453C21.4043 24.6125 21.0733 24.5512 20.9084 24.309L19.953 22.9065L17.7808 24.4578C17.5891 24.5947 17.3295 24.5879 17.1452 24.4406L16.3582 23.8118L14.3117 25.2848C14.0844 25.4484 13.769 25.4057 13.5933 25.1879L11.1169 22.1194C10.9238 21.8801 10.9757 21.5263 11.2299 21.3527ZM27.2305 25.2971H27.9453V24.2424H26.956C25.7833 24.2424 24.6639 23.7562 23.8638 22.9043L23.0462 23.4721C24.1189 24.6232 25.6453 25.2971 27.2305 25.2971ZM21.4806 23.2754L24.0676 21.4787L23.3601 20.4735L20.8116 22.2934L21.4806 23.2754ZM17.4922 23.3679L26.1388 17.1931L22.8063 13.0452L13.2289 19.9617L17.4922 23.3679ZM14.1007 24.1372L15.5025 23.1281L13.1972 21.2863L12.2964 21.9015L14.1007 24.1372Z" fill="white"/>
<path d="M15.7812 19.9707C15.49 19.9707 15.2539 19.7346 15.2539 19.4434C15.2539 19.1521 15.49 18.916 15.7812 18.916C16.0725 18.916 16.3086 19.1521 16.3086 19.4434C16.3086 19.7346 16.0725 19.9707 15.7812 19.9707Z" fill="#8F9095"/>
</svg>
