<svg width="20" height="20" viewBox="0 0 20 20" fill="none" xmlns="http://www.w3.org/2000/svg">
<path d="M1.22992 11.3527L2.33534 10.5978L2.02835 10.3525C1.75645 10.1353 1.76584 9.7173 2.04878 9.513L12.1888 2.19012C12.6443 1.86116 13.2767 1.94666 13.6285 2.3846L16.961 6.53256C17.34 7.00439 17.2444 7.6996 16.7518 8.05141L14.2184 9.86056L15.2355 11.3056C15.4038 11.5447 15.3452 11.8754 15.1051 12.0422L14.7425 12.294C15.3341 12.8648 16.1274 13.1878 16.956 13.1878H17.9453V12.0452C17.9453 11.7539 18.1814 11.5178 18.4727 11.5178C18.7639 11.5178 19 11.7539 19 12.0452V17.4241C19 17.7153 18.7639 17.9514 18.4727 17.9514C18.1814 17.9514 17.9453 17.7153 17.9453 17.4241V16.3518H17.2305C15.3376 16.3518 13.487 15.5557 12.1725 14.079L11.6451 14.4453C11.4043 14.6125 11.0733 14.5512 10.9084 14.309L9.95305 12.9065L7.78084 14.4578C7.58913 14.5947 7.32954 14.5879 7.14522 14.4406L6.35817 13.8118L4.31172 15.2848C4.0844 15.4484 3.76901 15.4057 3.59327 15.1879L1.11689 12.1194C0.923811 11.8801 0.975702 11.5263 1.22992 11.3527ZM17.2305 15.2971H17.9453V14.2424H16.956C15.7833 14.2424 14.6639 13.7562 13.8638 12.9043L13.0462 13.4721C14.1189 14.6232 15.6453 15.2971 17.2305 15.2971ZM11.4806 13.2754L14.0676 11.4787L13.3601 10.4735L10.8116 12.2934L11.4806 13.2754ZM7.49224 13.3679L16.1388 7.19311L12.8063 3.04515L3.22891 9.9617L7.49224 13.3679ZM4.10068 14.1371L5.50254 13.1281L3.1972 11.2863L2.29642 11.9015L4.10068 14.1371Z" fill="#8F9095"/>
<path d="M5.78125 9.97071C5.49 9.97071 5.2539 9.73461 5.2539 9.44336C5.2539 9.15212 5.49 8.91602 5.78125 8.91602C6.07249 8.91602 6.30859 9.15212 6.30859 9.44336C6.30859 9.73461 6.07249 9.97071 5.78125 9.97071Z" fill="#8F9095"/>
</svg>
