<svg width="20" height="20" viewBox="0 0 20 20" fill="none" xmlns="http://www.w3.org/2000/svg">
<path d="M3.64308 8.54184C3.59799 8.73909 3.68253 8.81798 3.89668 8.80671C4.79837 8.74472 5.86913 8.694 7.66688 8.694C9.47026 8.694 10.541 8.74472 11.4427 8.80671C11.6512 8.81798 11.7357 8.73909 11.6907 8.54184C11.5554 7.94447 11.2962 7.16676 11.1159 6.85681C10.9693 6.6032 10.8059 6.4905 10.5128 6.45105C10.1071 6.39469 9.18283 6.35524 7.66688 6.35524C6.15656 6.35524 5.23231 6.39469 4.82091 6.45105C4.52786 6.4905 4.36443 6.6032 4.21791 6.85681C4.03757 7.16676 3.78397 7.94447 3.64308 8.54184ZM3.60363 12.3797C4.11647 12.3797 4.51096 11.9851 4.51096 11.4723C4.51096 10.9539 4.11647 10.565 3.60363 10.565C3.0908 10.565 2.6963 10.9539 2.6963 11.4723C2.6963 11.9851 3.0908 12.3797 3.60363 12.3797ZM6.74264 12.1542H9.16032C9.5435 12.1542 9.80838 11.8894 9.80838 11.5005C9.80838 11.1173 9.5435 10.8524 9.16032 10.8524H6.74264C6.35378 10.8524 6.0889 11.1173 6.0889 11.5005C6.0889 11.8894 6.35378 12.1542 6.74264 12.1542ZM11.7301 12.3797C12.2486 12.3797 12.6374 11.9851 12.6374 11.4723C12.6374 10.9539 12.2486 10.565 11.7301 10.565C11.2173 10.565 10.8284 10.9539 10.8284 11.4723C10.8284 11.9851 11.2173 12.3797 11.7301 12.3797ZM6.95116 13.8956C7.15405 13.8956 7.32309 13.7265 7.32309 13.5237C7.32309 13.3208 7.15405 13.1574 6.95116 13.1574C5.23231 13.1405 3.19223 13.0615 2.38635 12.9601C1.90733 12.9038 1.73826 12.6558 1.73826 12.2275V11.4611C1.73826 10.689 1.86224 10.3283 2.30181 9.75348L2.87664 8.99832C3.0288 8.18116 3.39512 7.04278 3.63745 6.52431C3.81778 6.13546 4.17282 5.89312 4.68566 5.83114C5.04633 5.78605 6.19037 5.73533 7.66688 5.73533C9.14902 5.73533 10.31 5.78605 10.6368 5.83114C11.1665 5.89876 11.516 6.14109 11.7019 6.52431C11.9443 7.04278 12.3106 8.18116 12.4571 8.99832L13.0375 9.75348C13.4715 10.3283 13.5955 10.689 13.5955 11.4611V12.081C13.5955 12.2838 13.7646 12.4473 13.9674 12.4473C14.1703 12.4473 14.3338 12.2838 14.3338 12.081V11.4611C14.3338 10.5086 14.1421 9.97892 13.6237 9.30264L13.1446 8.68836C12.9417 7.67397 12.5642 6.60884 12.3726 6.19181C12.0682 5.55499 11.4878 5.17741 10.7383 5.07597C10.3607 5.02525 9.12647 4.99707 7.66688 4.99707C6.21288 4.99707 4.97871 5.03088 4.60113 5.07597C3.8516 5.16614 3.2655 5.55499 2.96681 6.19181C2.76957 6.60884 2.39762 7.67397 2.18911 8.68836L1.71572 9.30264C1.19161 9.97892 1 10.5086 1 11.4611V12.4529C1 13.1743 1.4283 13.5969 2.18911 13.6815C3.14151 13.7942 5.23231 13.8787 6.95116 13.8956ZM2.03694 15.4511H2.6963C3.11897 15.4511 3.44584 15.1242 3.44584 14.7071V13.3659L1.28741 13.0559V14.7071C1.28741 15.1242 1.61427 15.4511 2.03694 15.4511Z" fill="#8F9095"/>
<path d="M12.3331 13.9013C14.2267 13.9013 16.7402 13.8055 17.8109 13.6815C18.5717 13.5969 19 13.1743 19 12.4529V11.4611C19 10.5086 18.8084 9.97892 18.2843 9.30264L17.8109 8.68836C17.6024 7.67397 17.2305 6.60884 17.0332 6.19181C16.7346 5.55499 16.1484 5.17741 15.3989 5.07597C15.0213 5.02525 13.7871 4.99707 12.3331 4.99707C10.8735 4.99707 9.63933 5.03088 9.26178 5.07597C8.51224 5.16614 7.92612 5.55499 7.62743 6.19181C7.43584 6.60884 7.05828 7.67397 6.85539 8.68836L6.37637 9.30264C5.85223 9.97892 5.66064 10.5086 5.66064 11.4611V12.4529C5.66064 13.1743 6.08893 13.5969 6.85539 13.6815C7.92049 13.8055 10.434 13.9013 12.3331 13.9013ZM6.69761 15.4511H7.3626C7.78526 15.4511 8.10646 15.1242 8.10646 14.7071V13.3659L5.9537 13.0559V14.7071C5.9537 15.1242 6.27494 15.4511 6.69761 15.4511ZM17.3037 15.4511H17.9631C18.3857 15.4511 18.7126 15.1242 18.7126 14.7071V13.0559L16.5542 13.3659V14.7071C16.5542 15.1242 16.881 15.4511 17.3037 15.4511Z" fill="white"/>
<path d="M8.30935 8.54184C8.26429 8.73909 8.34878 8.81798 8.5573 8.80671C9.45899 8.74472 10.5298 8.694 12.3331 8.694C14.1309 8.694 15.2016 8.74472 16.1033 8.80671C16.3175 8.81798 16.3964 8.73909 16.3513 8.54184C16.216 7.94447 15.9625 7.16676 15.7821 6.85681C15.6356 6.6032 15.4722 6.4905 15.1791 6.45105C14.7677 6.39469 13.8435 6.35524 12.3331 6.35524C10.8172 6.35524 9.89296 6.39469 9.48717 6.45105C9.19416 6.4905 9.02507 6.6032 8.87854 6.85681C8.70383 7.16676 8.44463 7.94447 8.30935 8.54184ZM8.26992 12.3797C8.78275 12.3797 9.17161 11.9851 9.17161 11.4723C9.17161 10.9539 8.78275 10.565 8.26992 10.565C7.75146 10.565 7.3626 10.9539 7.3626 11.4723C7.3626 11.9851 7.75146 12.3797 8.26992 12.3797ZM10.8397 12.1542H13.821C14.2098 12.1542 14.4747 11.8894 14.4747 11.5005C14.4747 11.1173 14.2098 10.8524 13.821 10.8524H10.8397C10.4565 10.8524 10.186 11.1173 10.186 11.5005C10.186 11.8894 10.4565 12.1542 10.8397 12.1542ZM16.3964 12.3797C16.9092 12.3797 17.3037 11.9851 17.3037 11.4723C17.3037 10.9539 16.9092 10.565 16.3964 10.565C15.8779 10.565 15.4891 10.9539 15.4891 11.4723C15.4891 11.9851 15.8779 12.3797 16.3964 12.3797ZM12.3331 13.9013C14.2267 13.9013 16.7402 13.8055 17.8109 13.6815C18.5717 13.5969 19 13.1743 19 12.4529V11.4611C19 10.5086 18.8084 9.97892 18.2843 9.30264L17.8109 8.68836C17.6024 7.67397 17.2305 6.60884 17.0332 6.19181C16.7346 5.55499 16.1484 5.17741 15.3989 5.07597C15.0213 5.02525 13.7871 4.99707 12.3331 4.99707C10.8735 4.99707 9.63933 5.03088 9.26178 5.07597C8.51224 5.16614 7.92612 5.55499 7.62743 6.19181C7.43584 6.60884 7.05828 7.67397 6.85539 8.68836L6.37637 9.30264C5.85223 9.97892 5.66064 10.5086 5.66064 11.4611V12.4529C5.66064 13.1743 6.08893 13.5969 6.85539 13.6815C7.92049 13.8055 10.434 13.9013 12.3331 13.9013ZM12.3331 13.163C10.417 13.163 7.9543 13.0728 7.05261 12.9601C6.57358 12.9038 6.39892 12.6558 6.39892 12.2275V11.4611C6.39892 10.689 6.52852 10.3283 6.96244 9.75348L7.54294 8.99832C7.68947 8.18116 8.0614 7.04278 8.2981 6.52431C8.48406 6.13546 8.83911 5.89312 9.35194 5.83114C9.71262 5.78605 10.851 5.73533 12.3331 5.73533C13.8097 5.73533 14.9762 5.78605 15.3031 5.83114C15.8329 5.89876 16.1822 6.14109 16.3626 6.52431C16.6105 7.04278 16.9712 8.18116 17.1234 8.99832L17.6982 9.75348C18.1378 10.3283 18.2618 10.689 18.2618 11.4611V12.2275C18.2618 12.6558 18.0927 12.9038 17.6081 12.9601C16.7064 13.0728 14.2493 13.163 12.3331 13.163ZM6.69761 15.4511H7.3626C7.78526 15.4511 8.10646 15.1242 8.10646 14.7071V13.3659L5.9537 13.0559V14.7071C5.9537 15.1242 6.27494 15.4511 6.69761 15.4511ZM17.3037 15.4511H17.9631C18.3857 15.4511 18.7126 15.1242 18.7126 14.7071V13.0559L16.5542 13.3659V14.7071C16.5542 15.1242 16.881 15.4511 17.3037 15.4511Z" fill="#8F9095"/>
</svg>
