<svg width="24" height="24" viewBox="0 0 24 24" fill="none" xmlns="http://www.w3.org/2000/svg">
<path d="M2.40039 18.7949C2.40039 19.1822 2.71881 19.4834 3.08887 19.4834H20.9033C21.282 19.4834 21.6004 19.1822 21.6004 18.7949C21.6004 18.4163 21.282 18.1064 20.9033 18.1064H3.08887C2.71881 18.1064 2.40039 18.4163 2.40039 18.7949Z" fill="white"/>
<path d="M17.1934 15.9211C17.1934 16.403 17.4946 16.6869 17.9938 16.6869H19.9817C20.4723 16.6869 20.7821 16.403 20.7821 15.9211V10.2325C20.7821 9.7506 20.4723 9.45801 19.9817 9.45801H17.9938C17.4946 9.45801 17.1934 9.7506 17.1934 10.2325V15.9211Z" fill="white"/>
<path d="M12.5293 15.9199C12.5293 16.4018 12.8391 16.6858 13.3296 16.6858H15.3176C15.8167 16.6858 16.1266 16.4018 16.1266 15.9199V6.31572C16.1266 5.83379 15.8167 5.5498 15.3176 5.5498H13.3296C12.8391 5.5498 12.5293 5.83379 12.5293 6.31572V15.9199Z" fill="white"/>
<path d="M7.87305 15.9202C7.87305 16.4021 8.17426 16.6861 8.6648 16.6861H10.6614C11.152 16.6861 11.4617 16.4021 11.4617 15.9202V4.35382C11.4617 3.87189 11.152 3.58789 10.6614 3.58789H8.6648C8.17426 3.58789 7.87305 3.87189 7.87305 4.35382V15.9202Z" fill="white"/>
<path d="M3.20898 15.9212C3.20898 16.4031 3.5188 16.6871 4.00935 16.6871H5.99734C6.49648 16.6871 6.8063 16.4031 6.8063 15.9212V8.30499C6.8063 7.83166 6.49648 7.53906 5.99734 7.53906H4.00935C3.5188 7.53906 3.20898 7.83166 3.20898 8.30499V15.9212Z" fill="white"/>
</svg>
