<svg width="17" height="9" viewBox="0 0 17 9" fill="none" xmlns="http://www.w3.org/2000/svg">
<path d="M8.1 9C8.33324 9 8.53861 8.91718 8.71587 8.74233L15.948 1.44476C16.116 1.28832 16.2 1.08588 16.2 0.846608C16.2 0.368059 15.836 -6.92214e-07 15.3507 -6.71002e-07C15.1082 -6.60399e-07 14.9028 0.101222 14.7442 0.248462L8.1 6.94785L1.45575 0.248463C1.29712 0.101223 1.08249 -4.73171e-08 0.849194 -3.71195e-08C0.363939 -1.59083e-08 -3.77314e-07 0.36806 -3.56396e-07 0.846609C-3.45937e-07 1.08588 0.0839858 1.28832 0.242626 1.44476L7.48409 8.74233C7.65206 8.91718 7.86669 9 8.1 9Z" fill="#494949"/>
</svg>
