<svg width="32" height="32" viewBox="0 0 32 32" fill="none" xmlns="http://www.w3.org/2000/svg">
<path d="M15.9998 2.99976C23.1622 2.99976 28.9996 8.83733 28.9998 15.9998C28.9998 23.1623 23.1623 28.9998 15.9998 28.9998C8.83733 28.9996 2.99976 23.1622 2.99976 15.9998C2.99993 8.83744 8.83744 2.99993 15.9998 2.99976ZM16.6345 19.7986C16.2326 19.6313 15.7669 19.6311 15.365 19.7986C15.169 19.8802 14.9911 19.9951 14.8308 20.1394L14.8171 20.1511L14.8054 20.1638C14.6612 20.3241 14.5472 20.5031 14.4656 20.699C14.3848 20.893 14.3337 21.11 14.3337 21.3337C14.3338 21.5573 14.3849 21.7737 14.4656 21.9675C14.5507 22.1855 14.6688 22.3508 14.8054 22.5027L14.8171 22.5164L14.8308 22.5281C14.991 22.6722 15.1692 22.7863 15.365 22.8679C15.559 22.9488 15.776 22.9997 15.9998 22.9998C16.2235 22.9998 16.4405 22.9487 16.6345 22.8679C16.8304 22.7863 17.0094 22.6723 17.1697 22.5281L17.1824 22.5164L17.1941 22.5027C17.3308 22.3508 17.4488 22.1855 17.5339 21.9675L17.5349 21.9685C17.6157 21.7745 17.6667 21.5575 17.6667 21.3337C17.6667 21.11 17.6157 20.8929 17.5349 20.699C17.4533 20.503 17.3384 20.3241 17.1941 20.1638L17.1824 20.1511L17.1697 20.1394L17.0457 20.0369C16.9187 19.9401 16.7815 19.8598 16.6345 19.7986ZM15.9998 9.33374C15.2691 9.33392 14.6667 9.9361 14.6667 10.6667V17.3337C14.6669 18.0642 15.2692 18.6666 15.9998 18.6667C16.7304 18.6667 17.3336 18.0644 17.3337 17.3337V10.6667C17.3337 9.93599 16.7305 9.33374 15.9998 9.33374Z" fill="#E96C00" stroke="#E96C00" stroke-width="0.666667"/>
</svg>
