<svg width="20" height="20" viewBox="0 0 20 20" fill="none" xmlns="http://www.w3.org/2000/svg">
<mask id="path-1-inside-1_10593_45648" fill="white">
<path d="M5.83984 10.9209C6.96774 10.9209 7.93592 11.2356 8.70312 11.7266C7.6078 12.6814 6.9894 13.9001 6.98926 14.9941C6.98926 15.3077 7.05465 15.6093 7.2041 15.873H2.16211C1.33015 15.873 1 15.5423 1 14.9414C1.00022 13.119 2.86216 10.921 5.83984 10.9209ZM5.84668 4.89844C7.06823 4.89845 8.14453 5.9419 8.14453 7.36816C8.14444 8.80097 7.07477 9.91015 5.84668 9.91016C4.61191 9.91016 3.54199 8.80054 3.54199 7.38086C3.54216 5.96797 4.61861 4.89844 5.84668 4.89844Z"/>
</mask>
<path d="M5.83984 10.9209V9.4209H5.83979L5.83984 10.9209ZM8.70312 11.7266L9.68881 12.8572L11.1976 11.5419L9.51159 10.4631L8.70312 11.7266ZM6.98926 14.9941L5.48926 14.9939V14.9941H6.98926ZM7.2041 15.873V17.373H9.77827L8.50912 15.1335L7.2041 15.873ZM2.16211 15.873L2.16209 17.373H2.16211V15.873ZM1 14.9414L-0.5 14.9412V14.9414H1ZM5.84668 4.89844L5.84669 3.39844H5.84668V4.89844ZM8.14453 7.36816L9.64453 7.36825V7.36816H8.14453ZM5.84668 9.91016V11.4102H5.84669L5.84668 9.91016ZM3.54199 7.38086L2.04199 7.38068V7.38086H3.54199ZM5.83984 10.9209V12.4209C6.68144 12.4209 7.36902 12.6537 7.89466 12.99L8.70312 11.7266L9.51159 10.4631C8.50281 9.81759 7.25404 9.4209 5.83984 9.4209V10.9209ZM8.70312 11.7266L7.71744 10.5959C6.38723 11.7555 5.48948 13.358 5.48926 14.9939L6.98926 14.9941L8.48926 14.9943C8.48933 14.4423 8.82837 13.6073 9.68881 12.8572L8.70312 11.7266ZM6.98926 14.9941H5.48926C5.48926 15.5133 5.5978 16.0809 5.89909 16.6126L7.2041 15.873L8.50912 15.1335C8.50911 15.1335 8.50906 15.1334 8.50896 15.1332C8.50887 15.133 8.50871 15.1327 8.50851 15.1323C8.50812 15.1315 8.50749 15.13 8.50669 15.128C8.50509 15.1238 8.50265 15.1167 8.50008 15.1058C8.49485 15.0838 8.48926 15.0473 8.48926 14.9941H6.98926ZM7.2041 15.873V14.373H2.16211V15.873V17.373H7.2041V15.873ZM2.16211 15.873L2.16213 14.373C2.04765 14.373 2.0103 14.361 2.02468 14.365C2.04365 14.3701 2.13255 14.3983 2.23786 14.4874C2.3497 14.582 2.42559 14.6994 2.46653 14.807C2.50304 14.903 2.5 14.9592 2.5 14.9414H1H-0.5C-0.5 15.5154 -0.333042 16.242 0.300277 16.7777C0.87904 17.2673 1.59194 17.373 2.16209 17.373L2.16211 15.873ZM1 14.9414L2.5 14.9416C2.50011 14.0512 3.58299 12.421 5.8399 12.4209L5.83984 10.9209L5.83979 9.4209C2.14132 9.42103 -0.499667 12.1869 -0.5 14.9412L1 14.9414ZM5.84668 4.89844L5.84667 6.39844C6.1833 6.39844 6.64453 6.71268 6.64453 7.36816H8.14453H9.64453C9.64453 5.17113 7.95316 3.39845 5.84669 3.39844L5.84668 4.89844ZM8.14453 7.36816L6.64453 7.36807C6.64449 8.08908 6.1344 8.41015 5.84667 8.41016L5.84668 9.91016L5.84669 11.4102C8.01514 11.4101 9.6444 9.51285 9.64453 7.36825L8.14453 7.36816ZM5.84668 9.91016V8.41016C5.54484 8.41016 5.04199 8.08064 5.04199 7.38086H3.54199H2.04199C2.04199 9.52045 3.67897 11.4102 5.84668 11.4102V9.91016ZM3.54199 7.38086L5.04199 7.38104C5.04207 6.72581 5.51594 6.39844 5.84668 6.39844V4.89844V3.39844C3.72128 3.39844 2.04226 5.21013 2.04199 7.38068L3.54199 7.38086Z" fill="#8F9095" mask="url(#path-1-inside-1_10593_45648)"/>
<path d="M13.4404 11.6895C14.9782 11.6895 16.1992 12.2156 17.0264 12.9043C17.8761 13.6119 18.251 14.4323 18.251 14.9941C18.251 15.0122 18.2481 15.0263 18.2471 15.0371C18.2217 15.0485 18.1761 15.0666 18.1006 15.082C17.9845 15.1058 17.8201 15.1221 17.5938 15.1221H9.29395C9.06751 15.1221 8.90315 15.1058 8.78711 15.082C8.71122 15.0665 8.66584 15.0485 8.64062 15.0371C8.63961 15.0263 8.6377 15.0122 8.6377 14.9941C8.63771 14.4322 9.01236 13.6119 9.86133 12.9043C10.6877 12.2156 11.9065 11.6895 13.4404 11.6895ZM13.4473 4.75C14.4146 4.75 15.3386 5.59017 15.3389 6.83887C15.3389 8.13338 14.3971 9.00781 13.4473 9.00781C12.4954 9.0077 11.5566 8.13144 11.5566 6.85254C11.5566 5.60983 12.4867 4.75011 13.4473 4.75Z" stroke="#8F9095" stroke-width="1.5"/>
</svg>
