<svg width="24" height="24" viewBox="0 0 24 24" fill="none" xmlns="http://www.w3.org/2000/svg">
<path d="M9.71468 2.40039H3.61944C2.94618 2.40039 2.40039 2.94618 2.40039 3.61944V9.71468C2.40039 10.388 2.94618 10.9337 3.61944 10.9337H9.71468C10.388 10.9337 10.9337 10.388 10.9337 9.71468V3.61944C10.9337 2.94618 10.388 2.40039 9.71468 2.40039Z" fill="white"/>
<path d="M9.71468 13.0664H3.61944C2.94618 13.0664 2.40039 13.6122 2.40039 14.2855V20.3807C2.40039 21.054 2.94618 21.5997 3.61944 21.5997H9.71468C10.388 21.5997 10.9337 21.054 10.9337 20.3807V14.2855C10.9337 13.6122 10.388 13.0664 9.71468 13.0664Z" fill="white"/>
<path d="M17.3331 10.9337C19.6895 10.9337 21.5997 9.02348 21.5997 6.66706C21.5997 4.31064 19.6895 2.40039 17.3331 2.40039C14.9767 2.40039 13.0664 4.31064 13.0664 6.66706C13.0664 9.02348 14.9767 10.9337 17.3331 10.9337Z" fill="white"/>
<path d="M20.3807 13.0664H14.2855C13.6122 13.0664 13.0664 13.6122 13.0664 14.2855V20.3807C13.0664 21.054 13.6122 21.5997 14.2855 21.5997H20.3807C21.054 21.5997 21.5997 21.054 21.5997 20.3807V14.2855C21.5997 13.6122 21.054 13.0664 20.3807 13.0664Z" fill="white"/>
</svg>
