<svg width="24" height="24" viewBox="0 0 24 24" fill="none" xmlns="http://www.w3.org/2000/svg">
<path d="M4.07653 20.452H19.9239C21.8476 20.452 22.8002 19.5085 22.8002 17.6215V6.42758C22.8002 4.54056 21.8476 3.58789 19.9239 3.58789H4.07653C2.16203 3.58789 1.2002 4.54056 1.2002 6.42758V17.6215C1.2002 19.5085 2.16203 20.452 4.07653 20.452ZM4.09485 18.9772C3.17882 18.9772 2.67501 18.4917 2.67501 17.5391V6.51003C2.67501 5.55736 3.17882 5.0627 4.09485 5.0627H19.9056C20.8124 5.0627 21.3254 5.55736 21.3254 6.51003V17.5391C21.3254 18.4917 20.8124 18.9772 19.9056 18.9772H4.09485Z" fill="white"/>
<path d="M14.1618 9.00221H19.1634C19.484 9.00221 19.7313 8.75488 19.7313 8.43427C19.7313 8.12282 19.484 7.87549 19.1634 7.87549H14.1618C13.8321 7.87549 13.5848 8.12282 13.5848 8.43427C13.5848 8.75488 13.8321 9.00221 14.1618 9.00221ZM14.1618 12.593H19.1634C19.484 12.593 19.7313 12.3366 19.7313 12.0159C19.7313 11.7045 19.484 11.4663 19.1634 11.4663H14.1618C13.8321 11.4663 13.5848 11.7045 13.5848 12.0159C13.5848 12.3366 13.8321 12.593 14.1618 12.593ZM14.1618 16.1748H19.1634C19.484 16.1748 19.7313 15.9366 19.7313 15.6251C19.7313 15.3045 19.484 15.048 19.1634 15.048H14.1618C13.8321 15.048 13.5848 15.3045 13.5848 15.6251C13.5848 15.9366 13.8321 16.1748 14.1618 16.1748ZM4.61682 16.1748H11.771C12.0733 16.1748 12.2199 15.9732 12.2199 15.6984C12.2199 14.8373 10.9283 12.6205 8.18934 12.6205C5.45041 12.6205 4.16797 14.8373 4.16797 15.6984C4.16797 15.9732 4.31453 16.1748 4.61682 16.1748ZM8.18934 11.9793C9.3069 11.9885 10.1954 11.045 10.1954 9.78999C10.1954 8.61747 9.3069 7.64648 8.18934 7.64648C7.08095 7.64648 6.18323 8.61747 6.18323 9.78999C6.18323 11.045 7.08095 11.9793 8.18934 11.9793Z" fill="white"/>
</svg>
