<svg width="20" height="20" viewBox="0 0 20 20" fill="none" xmlns="http://www.w3.org/2000/svg">
<path d="M9.74117 6.02637C9.33538 6.02637 8.9387 6.1467 8.6013 6.37214C8.26389 6.59759 8.00092 6.91802 7.84563 7.29293C7.69034 7.66783 7.64971 8.08036 7.72888 8.47835C7.80804 8.87635 8.00345 9.24193 8.29039 9.52887C8.57733 9.8158 8.94291 10.0112 9.3409 10.0904C9.73889 10.1695 10.1514 10.1289 10.5263 9.97362C10.9012 9.81833 11.2217 9.55536 11.4471 9.21796C11.6726 8.88055 11.7929 8.48387 11.7929 8.07808C11.7923 7.53412 11.5759 7.01262 11.1913 6.62799C10.8066 6.24335 10.2851 6.02699 9.74117 6.02637ZM9.74117 9.10394C9.53827 9.10394 9.33994 9.04378 9.17123 8.93105C9.00253 8.81833 8.87105 8.65811 8.7934 8.47066C8.71576 8.28321 8.69544 8.07695 8.73502 7.87795C8.77461 7.67895 8.87231 7.49616 9.01578 7.35269C9.15925 7.20922 9.34204 7.11152 9.54104 7.07194C9.74003 7.03235 9.9463 7.05267 10.1337 7.13031C10.3212 7.20796 10.4814 7.33945 10.5941 7.50815C10.7069 7.67685 10.767 7.87519 10.767 8.07808C10.7667 8.35006 10.6585 8.61081 10.4662 8.80313C10.2739 8.99545 10.0131 9.10363 9.74117 9.10394Z" fill="#494949" stroke="#8F9095" stroke-width="0.5"/>
<path d="M13.6847 4.13256C12.7099 3.15801 11.4086 2.57909 10.0321 2.50752C8.65554 2.43596 7.30128 2.87683 6.23068 3.74505C5.16009 4.61327 4.44904 5.84728 4.23478 7.20893C4.02052 8.57057 4.31823 9.96332 5.07046 11.1184L8.94651 17.0688C9.03276 17.2012 9.1507 17.31 9.28963 17.3853C9.42856 17.4606 9.58408 17.5 9.74211 17.5C9.90013 17.5 10.0557 17.4606 10.1946 17.3853C10.3335 17.31 10.4515 17.2012 10.5377 17.0688L14.4139 11.1184C15.1119 10.0469 15.4203 8.76806 15.2876 7.4962C15.1548 6.22435 14.5889 5.03679 13.6847 4.13256ZM13.5543 10.5584L9.74212 16.4106L5.92988 10.5584C4.76296 8.76704 5.01324 6.36973 6.52497 4.85794C6.94745 4.43545 7.44901 4.10031 8.00101 3.87166C8.55301 3.64301 9.14464 3.52532 9.74212 3.52532C10.3396 3.52532 10.9312 3.64301 11.4832 3.87166C12.0352 4.10031 12.5368 4.43545 12.9593 4.85794C14.471 6.36973 14.7213 8.76704 13.5543 10.5584Z" fill="#494949" stroke="#8F9095" stroke-width="0.3"/>
</svg>
