<svg width="20" height="20" viewBox="0 0 20 20" fill="none" xmlns="http://www.w3.org/2000/svg">
<path d="M9.74166 6.02661C9.33587 6.02661 8.93919 6.14694 8.60179 6.37239C8.26438 6.59783 8.00141 6.91827 7.84612 7.29317C7.69083 7.66807 7.6502 8.0806 7.72937 8.4786C7.80853 8.87659 8.00394 9.24217 8.29088 9.52911C8.57781 9.81605 8.94339 10.0115 9.34139 10.0906C9.73938 10.1698 10.1519 10.1292 10.5268 9.97387C10.9017 9.81858 11.2222 9.5556 11.4476 9.2182C11.673 8.8808 11.7934 8.48412 11.7934 8.07833C11.7928 7.53437 11.5764 7.01287 11.1918 6.62823C10.8071 6.24359 10.2856 6.02723 9.74166 6.02661ZM9.74166 9.10419C9.53876 9.10419 9.34042 9.04402 9.17172 8.9313C9.00302 8.81857 8.87153 8.65836 8.79389 8.47091C8.71624 8.28346 8.69593 8.07719 8.73551 7.87819C8.77509 7.6792 8.8728 7.49641 9.01627 7.35294C9.15974 7.20947 9.34253 7.11176 9.54152 7.07218C9.74052 7.0326 9.94679 7.05291 10.1342 7.13056C10.3217 7.2082 10.4819 7.33969 10.5946 7.50839C10.7074 7.67709 10.7675 7.87543 10.7675 8.07833C10.7672 8.35031 10.659 8.61105 10.4667 8.80337C10.2744 8.99569 10.0136 9.10387 9.74166 9.10419Z" fill="#8F9095" stroke="#8F9095" stroke-width="0.5"/>
<path d="M13.6842 4.13256C12.7094 3.15801 11.4081 2.57909 10.0316 2.50752C8.65505 2.43596 7.30079 2.87683 6.2302 3.74505C5.1596 4.61327 4.44855 5.84728 4.23429 7.20893C4.02003 8.57057 4.31774 9.96332 5.06997 11.1184L8.94602 17.0688C9.03227 17.2012 9.15021 17.31 9.28914 17.3853C9.42807 17.4606 9.5836 17.5 9.74162 17.5C9.89964 17.5 10.0552 17.4606 10.1941 17.3853C10.333 17.31 10.451 17.2012 10.5372 17.0688L14.4134 11.1184C15.1114 10.0469 15.4198 8.76806 15.2871 7.4962C15.1543 6.22435 14.5884 5.03679 13.6842 4.13256ZM13.5539 10.5584L9.74164 16.4106L5.92939 10.5584C4.76247 8.76704 5.01275 6.36973 6.52448 4.85794C6.94696 4.43545 7.44852 4.10031 8.00052 3.87166C8.55252 3.64301 9.14415 3.52532 9.74164 3.52532C10.3391 3.52532 10.9308 3.64301 11.4828 3.87166C12.0348 4.10031 12.5363 4.43545 12.9588 4.85794C14.4705 6.36973 14.7208 8.76704 13.5539 10.5584Z" fill="#8F9095" stroke="#8F9095" stroke-width="0.3"/>
</svg>
