<svg width="24" height="24" viewBox="0 0 24 24" fill="none" xmlns="http://www.w3.org/2000/svg">
<path d="M18.585 3.61914C20.5982 3.61925 21.5996 4.62104 21.5996 6.60547V18.3682C21.5996 20.3525 20.5981 21.3544 18.585 21.3545H5.4248C3.41153 21.3544 2.40044 20.3622 2.40039 18.3682V6.60547C2.40039 4.61135 3.41148 3.6192 5.4248 3.61914H18.585ZM5.28027 8.02148C4.42302 8.02156 3.95119 8.48392 3.95117 9.37012V18.4551C3.95129 19.3508 4.42311 19.8036 5.28027 19.8037H18.71C19.5672 19.8037 20.0487 19.3508 20.0488 18.4551V9.37012C20.0488 8.48389 19.5673 8.02153 18.71 8.02148H5.28027ZM7.48633 16.3447C7.83311 16.3447 7.93943 16.4413 7.93945 16.7783V17.3467C7.93945 17.6838 7.83315 17.79 7.48633 17.79H6.92773C6.58101 17.79 6.47461 17.6838 6.47461 17.3467V16.7783C6.47463 16.4413 6.58105 16.3447 6.92773 16.3447H7.48633ZM10.6943 16.3447C11.0315 16.3447 11.1377 16.4413 11.1377 16.7783V17.3467C11.1377 17.6838 11.0316 17.79 10.6943 17.79H10.126C9.78899 17.79 9.67383 17.6837 9.67383 17.3467V16.7783C9.67386 16.4414 9.78903 16.3448 10.126 16.3447H10.6943ZM13.8926 16.3447C14.2297 16.3447 14.3457 16.4413 14.3457 16.7783V17.3467C14.3457 17.6838 14.2297 17.79 13.8926 17.79H13.3242C12.9873 17.7899 12.8721 17.6837 12.8721 17.3467V16.7783C12.8721 16.4414 12.9874 16.3448 13.3242 16.3447H13.8926ZM7.48633 13.1943C7.83304 13.1943 7.93939 13.291 7.93945 13.6279V14.1963C7.93945 14.5335 7.83315 14.6299 7.48633 14.6299H6.92773C6.58101 14.6299 6.47461 14.5335 6.47461 14.1963V13.6279C6.47467 13.2911 6.58112 13.1944 6.92773 13.1943H7.48633ZM10.6943 13.1943C11.0314 13.1943 11.1376 13.291 11.1377 13.6279V14.1963C11.1377 14.5335 11.0316 14.6299 10.6943 14.6299H10.126C9.78899 14.6298 9.67383 14.5334 9.67383 14.1963V13.6279C9.6739 13.2911 9.7891 13.1944 10.126 13.1943H10.6943ZM13.8926 13.1943C14.2296 13.1943 14.3456 13.291 14.3457 13.6279V14.1963C14.3457 14.5335 14.2297 14.6299 13.8926 14.6299H13.3242C12.9873 14.6298 12.8721 14.5334 12.8721 14.1963V13.6279C12.8721 13.2912 12.9874 13.1944 13.3242 13.1943H13.8926ZM17.0918 13.1943C17.4285 13.1944 17.5439 13.2912 17.5439 13.6279V14.1963C17.5439 14.5334 17.4286 14.6298 17.0918 14.6299H16.5234C16.1862 14.6299 16.0801 14.5335 16.0801 14.1963V13.6279C16.0801 13.291 16.1863 13.1943 16.5234 13.1943H17.0918ZM10.6943 10.0352C11.0316 10.0352 11.1377 10.1413 11.1377 10.4785V11.0469C11.1376 11.3837 11.0314 11.4795 10.6943 11.4795H10.126C9.78914 11.4794 9.67393 11.3836 9.67383 11.0469V10.4785C9.67383 10.1414 9.78899 10.0352 10.126 10.0352H10.6943ZM13.8926 10.0352C14.2297 10.0352 14.3457 10.1413 14.3457 10.4785V11.0469C14.3456 11.3837 14.2296 11.4795 13.8926 11.4795H13.3242C12.9875 11.4794 12.8722 11.3835 12.8721 11.0469V10.4785C12.8721 10.1415 12.9873 10.0352 13.3242 10.0352H13.8926ZM17.0918 10.0352C17.4286 10.0352 17.5439 10.1415 17.5439 10.4785V11.0469C17.5438 11.3836 17.4285 11.4794 17.0918 11.4795H16.5234C16.1864 11.4795 16.0802 11.3837 16.0801 11.0469V10.4785C16.0801 10.1413 16.1862 10.0352 16.5234 10.0352H17.0918Z" fill="white"/>
</svg>
