<svg width="16" height="15" viewBox="0 0 16 15" fill="none" xmlns="http://www.w3.org/2000/svg">
<path d="M13.4873 0.015625C15.1649 0.0156639 15.9999 0.850443 16 2.50391V12.3066C16 13.9604 15.1651 14.7949 13.4873 14.7949H2.52051C0.842859 14.7948 1.43314e-05 13.9683 0 12.3066V2.50391C0.000144092 0.842481 0.842988 0.0157279 2.52051 0.015625H13.4873ZM2.40039 3.68457C1.6859 3.68457 1.29297 4.07002 1.29297 4.80859V12.3789C1.29298 13.1255 1.68591 13.5029 2.40039 13.5029H13.5918C14.3061 13.5028 14.707 13.1254 14.707 12.3789V4.80859C14.707 4.07011 14.3061 3.68467 13.5918 3.68457H2.40039ZM4.23926 10.6211C4.52793 10.6212 4.61621 10.7016 4.61621 10.9824V11.4561C4.61613 11.7366 4.5278 11.8251 4.23926 11.8252H3.77344C3.48456 11.8252 3.39559 11.7367 3.39551 11.4561V10.9824C3.39551 10.7015 3.48443 10.6211 3.77344 10.6211H4.23926ZM6.91211 10.6211C7.19312 10.6211 7.28125 10.7015 7.28125 10.9824V11.4561C7.28117 11.7367 7.193 11.8252 6.91211 11.8252H6.43848C6.15766 11.8252 6.06161 11.7367 6.06152 11.4561V10.9824C6.06152 10.7015 6.15753 10.6211 6.43848 10.6211H6.91211ZM9.57715 10.6211C9.85809 10.6211 9.95508 10.7015 9.95508 10.9824V11.4561C9.95499 11.7367 9.85797 11.8252 9.57715 11.8252H9.10352C8.82291 11.8251 8.72665 11.7366 8.72656 11.4561V10.9824C8.72656 10.7016 8.82278 10.6212 9.10352 10.6211H9.57715ZM4.23926 7.99512C4.52781 7.9952 4.61614 8.07592 4.61621 8.35645V8.83008C4.61621 9.11095 4.52793 9.19133 4.23926 9.19141H3.77344C3.48443 9.19141 3.39551 9.11109 3.39551 8.83008V8.35645C3.39558 8.07578 3.48455 7.99512 3.77344 7.99512H4.23926ZM6.91211 7.99512C7.19301 7.99512 7.28118 8.07578 7.28125 8.35645V8.83008C7.28125 9.11109 7.19312 9.19141 6.91211 9.19141H6.43848C6.15753 9.1914 6.06152 9.11107 6.06152 8.83008V8.35645C6.0616 8.0758 6.15765 7.99513 6.43848 7.99512H6.91211ZM9.57715 7.99512C9.85798 7.99512 9.955 8.07578 9.95508 8.35645V8.83008C9.95508 9.11109 9.85809 9.19141 9.57715 9.19141H9.10352C8.82278 9.19134 8.72656 9.11097 8.72656 8.83008V8.35645C8.72664 8.0759 8.8229 7.99519 9.10352 7.99512H9.57715ZM12.2432 7.99512C12.5237 7.99518 12.62 8.07589 12.6201 8.35645V8.83008C12.6201 9.11098 12.5239 9.19134 12.2432 9.19141H11.7695C11.4885 9.19141 11.3994 9.11109 11.3994 8.83008V8.35645C11.3995 8.07578 11.4886 7.99512 11.7695 7.99512H12.2432ZM6.91211 5.3623C7.19306 5.3623 7.28121 5.4506 7.28125 5.73145V6.20508C7.28125 6.48606 7.19312 6.56641 6.91211 6.56641H6.43848C6.15753 6.5664 6.06152 6.48605 6.06152 6.20508V5.73145C6.06156 5.45062 6.15759 5.36232 6.43848 5.3623H6.91211ZM9.57715 5.3623C9.85803 5.3623 9.95504 5.4506 9.95508 5.73145V6.20508C9.95508 6.48606 9.85809 6.56641 9.57715 6.56641H9.10352C8.82278 6.56634 8.72656 6.48594 8.72656 6.20508V5.73145C8.7266 5.45072 8.82284 5.36238 9.10352 5.3623H9.57715ZM12.2432 5.3623C12.5238 5.36237 12.6201 5.45071 12.6201 5.73145V6.20508C12.6201 6.48595 12.5239 6.56634 12.2432 6.56641H11.7695C11.4885 6.56641 11.3994 6.48606 11.3994 6.20508V5.73145C11.3995 5.4506 11.4886 5.3623 11.7695 5.3623H12.2432Z" fill="#494949"/>
</svg>
