<svg width="20" height="20" viewBox="0 0 20 20" fill="none" xmlns="http://www.w3.org/2000/svg">
<path d="M10 17.9902C14.3765 17.9902 18 14.3589 18 9.99023C18 5.61377 14.3687 1.99023 9.99217 1.99023C5.62353 1.99023 2 5.61377 2 9.99023C2 14.3589 5.63138 17.9902 10 17.9902ZM10 16.657C6.29805 16.657 3.34118 13.6922 3.34118 9.99023C3.34118 6.28829 6.29021 3.32357 9.99217 3.32357C13.6942 3.32357 16.6667 6.28829 16.6667 9.99023C16.6667 13.6922 13.702 16.657 10 16.657Z" fill="#8F9095"/>
<path d="M9.99206 11.4022C10.3607 11.4022 10.5803 11.1904 10.5881 10.7826L10.7058 6.6414C10.7136 6.2414 10.3999 5.94336 9.98423 5.94336C9.56071 5.94336 9.26268 6.23355 9.27051 6.63356L9.37244 10.7826C9.38027 11.1826 9.59993 11.4022 9.99206 11.4022ZM9.99206 13.9512C10.4391 13.9512 10.8313 13.5904 10.8313 13.1355C10.8313 12.6807 10.447 12.3198 9.99206 12.3198C9.52932 12.3198 9.14502 12.6885 9.14502 13.1355C9.14502 13.5826 9.53715 13.9512 9.99206 13.9512Z" fill="#8F9095"/>
</svg>
